<?xml version="1.0" encoding="UTF-8"?> <svg xmlns="http://www.w3.org/2000/svg" width="123" height="124" viewBox="0 0 123 124" fill="none"><path d="M101.653 36.1304C100.949 35.0422 99.4966 34.73 98.4099 35.4389C97.3261 36.145 97.0152 37.6037 97.7213 38.6919C98.4244 39.7831 99.8772 40.0923 100.961 39.3834C102.048 38.6744 102.356 37.2186 101.65 36.1275L101.653 36.1304ZM97.9275 34.7825C98.9184 33.9481 99.0491 32.4631 98.2152 31.4683C97.3842 30.4734 95.9053 30.3421 94.9144 31.1794C93.9236 32.0138 93.7929 33.4988 94.6268 34.4937C95.4578 35.4885 96.9367 35.6198 97.9275 34.7825ZM94.3566 30.5872C95.2399 29.6361 95.1876 28.1482 94.2403 27.2613C81.8567 15.6818 63.6908 11.1801 46.5884 17.0939C31.982 22.144 21.4259 33.6593 16.9949 47.3568H21.9751C26.226 35.6694 35.4919 25.9338 48.1226 21.5663C63.531 16.239 79.8983 20.3002 91.0471 30.7243C92.003 31.5908 93.4791 31.5354 94.3566 30.5872ZM25.5664 84.1695H20.1649C25.9558 95.218 35.7128 103.229 46.9923 107.028V102.016C38.2261 98.6956 30.5931 92.5106 25.5664 84.1695ZM77.8498 106.73C89.4577 102.582 98.4593 94.334 103.803 84.1695H98.3983C93.7638 91.8542 86.7061 98.1209 77.8469 101.683V106.733L77.8498 106.73Z" fill="#B48607"></path><path d="M122.997 78.9006V53.1655H119.322V65.8449L116.706 53.1655H112.83V78.9006H116.625V66.5742L119.124 78.9006H123H122.997ZM111.895 84.1695H106.534C100.932 95.5068 91.0674 104.729 78.2072 109.175C78.0881 109.216 77.9661 109.251 77.8469 109.292V114.397C78.4949 114.199 79.1399 114.001 79.785 113.779C94.7081 108.618 105.967 97.6016 111.892 84.1725L111.895 84.1695ZM111.046 37.9888C110.459 36.781 109.01 36.2792 107.807 36.8685C106.604 37.4578 106.104 38.9137 106.691 40.1215C107.278 41.3293 108.728 41.8311 109.931 41.2418C111.134 40.6525 111.633 39.1967 111.046 37.9888ZM107.769 32.1685C107.04 31.0423 105.54 30.7214 104.416 31.4537C103.294 32.186 102.975 33.6914 103.704 34.8204C104.433 35.9466 105.932 36.2675 107.057 35.5352C108.179 34.8029 108.498 33.2946 107.769 32.1685ZM105.918 52.5383L109.335 49.7929V48.2583H106.296L102.55 52.5383H105.921H105.918ZM110.23 58.3791C110.23 54.6797 108.533 52.83 105.139 52.83C101.746 52.83 100.06 54.6797 100.06 58.3791V73.8037C100.06 77.5119 101.751 79.3674 105.139 79.3674C108.533 79.3586 110.23 77.5031 110.23 73.8037V58.3791ZM106.307 73.8037C106.307 74.7665 105.918 75.2508 105.142 75.2508C104.366 75.2508 103.986 74.7694 103.986 73.8037V58.3791C103.986 57.4075 104.366 56.9203 105.128 56.9203H105.151C105.921 56.9291 106.304 57.4163 106.304 58.3791V73.8037H106.307ZM94.6965 78.9006V57.2704H97.82V53.1655H87.6533V57.2704H90.7769V78.9006H94.6994H94.6965ZM103.509 30.2225C104.535 29.3589 104.669 27.8243 103.808 26.7945C89.7076 9.92562 66.2332 2.63193 44.2756 10.2232C26.6415 16.3207 14.1299 30.5901 9.47808 47.3597H14.528C19.0404 32.6469 30.2444 20.2214 45.8504 14.8241C65.7829 7.93299 87.0867 14.5061 99.9469 29.7324C99.9905 29.7965 100.04 29.8636 100.092 29.9249C100.952 30.9548 102.481 31.089 103.506 30.2254L103.509 30.2225ZM0 78.9006H9.23691V74.7957H3.92256V53.1626H0V78.9006ZM11.5411 69.7134L10.4224 78.9006H14.3682L15.0278 73.5558H17.913L18.561 78.9006H22.5184L21.3998 69.6697L19.0201 53.1655H13.9295L11.5382 69.7134H11.5411ZM15.5217 69.4363L16.4631 61.6525L17.4046 69.4363H15.5188H15.5217ZM34.8091 78.9006V66.9827L37.2004 78.9006H39.9579L42.2678 67.0556V78.9006H46.0509V53.1655H42.1748L38.5457 70.224L34.8701 53.1655H30.9941V78.9006H34.812H34.8091ZM17.5208 84.1695H12.1629C18.8719 99.4279 31.8861 110.272 46.9923 114.64V109.552C34.4575 105.54 23.64 96.5951 17.5208 84.1695ZM75.9205 69.7134L74.8019 78.9006H78.7477L79.4072 73.5558H82.2925L82.9405 78.9006H86.9008L85.7821 69.6697L83.4024 53.1655H78.3147L75.9234 69.7134H75.9205ZM79.9041 69.4363L80.8484 61.6525L81.7898 69.4363H79.9041ZM55.7876 73.5558L56.4355 78.9006H60.393L59.2743 69.6697L56.8946 53.1655H51.804L49.4127 69.7134L48.294 78.9006H52.2427L52.9023 73.5558H55.7876ZM55.2791 69.4363H53.3934L54.3348 61.6525L55.2762 69.4363H55.2791ZM73.7355 78.9006L69.9524 67.0556C71.6638 66.3642 72.521 64.8558 72.521 62.5277V58.7292C72.521 55.0298 70.9432 53.1743 67.7848 53.1626H62.6361V78.8977H66.5616V67.8258H66.7737L69.4584 78.8977H73.7355V78.9006ZM68.5984 62.5277C68.5984 63.2279 68.3514 63.6859 67.8546 63.8989C67.7296 63.9485 67.4536 63.9719 67.0294 63.9719H66.5587V57.2675H67.442C68.2119 57.2675 68.5955 57.7547 68.5955 58.7292V62.5277H68.5984Z" fill="#B0182B"></path><path d="M86.4475 30.4442L85.8954 29.9949L82.7952 33.8402L84.2276 35.0042L84.6693 34.4587L83.7889 33.7439L86.4475 30.4471V30.4442ZM81.3191 32.7403L83.3095 28.1569L82.4843 27.6376L79.2532 31.442L79.8605 31.8213L80.5026 31.0336L81.1361 31.4303L80.7118 32.3552L81.322 32.7374L81.3191 32.7403ZM81.4208 30.8118L80.9298 30.5055L82.3884 28.7083L81.4208 30.8118ZM77.6464 30.5376L79.7298 26.0534L79.108 25.7617L78.5356 26.9958L78.4106 25.4349L77.8818 25.1869L75.7985 29.6711L76.4203 29.9628L77.8963 26.7828L77.9951 28.1628L77.0275 30.2458L77.6493 30.5376H77.6464ZM75.1709 25.1111C75.383 24.4517 75.168 24.017 74.52 23.807C73.875 23.5969 73.4449 23.8216 73.2299 24.478L72.3001 27.3546C72.0851 28.014 72.3001 28.4516 72.9481 28.6616C73.596 28.8717 74.0261 28.6471 74.2411 27.9877L75.1709 25.1111ZM74.4968 24.8923L73.5641 27.7689C73.4943 27.9819 73.3636 28.0548 73.166 27.9906C72.9713 27.9264 72.9074 27.7893 72.9742 27.5763L73.9069 24.6997C73.9767 24.4867 74.1074 24.4109 74.3021 24.4751H74.3079C74.5026 24.5422 74.5665 24.6793 74.4997 24.8923H74.4968ZM70.057 27.7339L71.0798 22.8967L70.3853 22.7479L69.3626 27.5851L70.057 27.7339ZM67.7703 24.4692L67.9185 23.2672C68.0027 22.5787 67.7064 22.1936 67.0294 22.1119C66.3553 22.0302 65.9746 22.3307 65.8904 23.0193L65.5243 26.0213C65.44 26.7099 65.7364 27.095 66.4105 27.1796C67.0875 27.2613 67.4681 26.9578 67.5524 26.2722L67.6512 25.4758L66.9451 25.3882L66.8463 26.1876C66.8202 26.4094 66.7039 26.5086 66.4976 26.4823C66.2942 26.456 66.2042 26.3335 66.2332 26.1118L66.5993 23.1097C66.6255 22.888 66.7417 22.7888 66.9422 22.815H66.948C67.1514 22.8442 67.2415 22.9667 67.2153 23.1855L67.0671 24.3875L67.7732 24.4751L67.7703 24.4692ZM62.9208 26.8557L63.6385 26.8674L62.9935 21.9077L62.0201 21.8902L61.2007 26.8236L61.9155 26.8353L62.0608 25.8288L62.8075 25.8404L62.9179 26.8499L62.9208 26.8557ZM62.7349 25.1636L62.1567 25.1519L62.485 22.8588L62.7349 25.1636ZM58.6612 27.0045L59.3411 26.9199L58.7397 22.0098L58.0598 22.0944L58.2254 23.4452L57.2956 22.1878L56.7145 22.2578L57.3159 27.1679L57.9958 27.0833L57.5687 23.5998L58.3823 24.7172L58.6612 26.9987V27.0045ZM55.5232 27.4655L54.4626 26.246C54.7416 25.998 54.8316 25.6625 54.7241 25.2394L54.3493 23.734C54.1808 23.063 53.7914 22.8004 53.1784 22.9521L52.1759 23.2031L53.3672 28.0023L54.0558 27.8302L53.7391 26.5581L53.835 26.5348L54.7648 27.6522L55.5203 27.4626L55.5232 27.4655ZM53.9309 25.7909C53.8989 25.8142 53.835 25.8346 53.7391 25.8609L53.5822 25.9017L53.0389 23.7136L53.283 23.6523C53.4834 23.6027 53.6084 23.6874 53.6636 23.9062L54.0442 25.4408C54.082 25.5925 54.0442 25.7121 53.9338 25.7938L53.9309 25.7909ZM49.7817 29.213L51.5018 28.5508L51.2519 27.8944L50.1943 28.3028L49.9793 27.7339L50.8887 27.3838L50.636 26.7244L49.7265 27.0745L48.9333 24.9973L49.9909 24.5889L49.741 23.9324L48.0209 24.5947L49.7875 29.213H49.7817ZM47.5182 30.2254L45.6645 26.4123L46.263 26.1205L45.955 25.4874L44.1216 26.386L44.4296 27.0191L45.0281 26.7244L46.8819 30.5376L47.5211 30.2254H47.5182ZM44.662 31.7804L41.9773 27.6318L41.4019 28.0052L42.14 29.1459L40.754 28.4253L40.2629 28.7463L42.9448 32.8949L43.5201 32.5215L41.617 29.5777L42.8344 30.2254L44.0809 32.1539L44.6562 31.7804H44.662ZM41.3031 34.1319L38.2029 30.2867L37.6508 30.736L40.7511 34.5812L41.3031 34.1319Z" fill="#B48607"></path><path d="M86.4214 48.0249V41.6269C86.4214 40.0923 85.5874 39.325 83.9225 39.325C82.2576 39.325 81.4295 40.0923 81.4295 41.6269V48.0249C81.4295 49.5624 82.2605 50.3327 83.9225 50.3327C85.5874 50.3297 86.4214 49.5595 86.4214 48.0249ZM84.4949 48.0249C84.4949 48.4246 84.3032 48.623 83.9225 48.623C83.5419 48.623 83.356 48.4217 83.356 48.0249V41.6269C83.356 41.2214 83.5419 41.0201 83.9167 41.0201H83.9284C84.3061 41.023 84.4949 41.2272 84.4949 41.6269V48.0249ZM77.2455 50.1401H79.1428V39.4242L77.3384 39.4476V44.4744L76.0484 39.4213H74.151V50.1372H76.0135V45.2796L77.2455 50.1372V50.1401ZM78.5239 38.5869L78.8145 38.0909L77.8382 37.4112L77.5186 37.9509C77.4866 38.0005 77.4489 38.0238 77.3966 38.0238C77.3007 38.0238 77.167 37.9684 76.9956 37.8546C76.5597 37.5716 76.1965 37.4316 75.9089 37.4316H75.8624C75.3888 37.4608 75.0111 37.77 74.7292 38.3652L74.4793 38.8874L75.4847 39.4009L75.7868 38.8903C75.8682 38.724 75.9292 38.6423 75.9728 38.6423H75.9844C76.0048 38.6452 76.1297 38.724 76.3651 38.8786C76.7922 39.1616 77.1525 39.3017 77.4401 39.3017H77.4866C77.9079 39.2783 78.2508 39.0391 78.521 38.5869H78.5239ZM71.5766 48.0249V41.6269C71.5766 40.0923 70.7427 39.325 69.0778 39.325C67.4129 39.325 66.5848 40.0923 66.5848 41.6269V48.0249C66.5848 49.5624 67.4158 50.3327 69.0778 50.3327C70.7427 50.3297 71.5766 49.5595 71.5766 48.0249ZM69.6502 48.0249C69.6502 48.4246 69.4584 48.623 69.0778 48.623C68.6972 48.623 68.5112 48.4217 68.5112 48.0249V41.6269C68.5112 41.2214 68.6972 41.0201 69.072 41.0201H69.0836C69.4614 41.023 69.6502 41.2272 69.6502 41.6269V48.0249ZM64.8618 50.1401L63.0051 45.2271C63.8448 44.9412 64.2661 44.3139 64.2661 43.3482V41.7728C64.2661 40.2382 63.4903 39.468 61.9417 39.4651H59.4138V50.1372H61.3402V45.5451H61.4448L62.7639 50.1372H64.8647L64.8618 50.1401ZM62.3397 43.3482C62.3397 43.637 62.2177 43.8296 61.9736 43.9171C61.9126 43.9375 61.776 43.9463 61.5697 43.9463H61.3402V41.1659H61.7731C62.1509 41.1659 62.3397 41.3673 62.3397 41.7728V43.3482ZM56.8394 48.0249V43.9726H54.4336V45.6793H54.913V48.0249C54.913 48.4246 54.7212 48.623 54.3406 48.623C53.96 48.623 53.774 48.4217 53.774 48.0249V41.6269C53.774 41.2214 53.96 41.0201 54.3348 41.0201H54.3464C54.7241 41.023 54.913 41.2272 54.913 41.6269V43.1411H56.8394V41.6269C56.8394 40.0923 56.0055 39.325 54.3406 39.325C52.6757 39.325 51.8476 40.0923 51.8476 41.6269V48.0249C51.8476 49.5624 52.6786 50.3327 54.3406 50.3327C56.0055 50.3297 56.8394 49.5595 56.8394 48.0249ZM49.3865 48.0249V41.6269C49.3865 40.0923 48.5526 39.325 46.8877 39.325C45.2228 39.325 44.3947 40.0923 44.3947 41.6269V48.0249C44.3947 49.5624 45.2257 50.3327 46.8877 50.3327C48.5555 50.3297 49.3865 49.5595 49.3865 48.0249ZM47.4601 48.0249C47.4601 48.4246 47.2684 48.623 46.8877 48.623C46.5071 48.623 46.3211 48.4217 46.3211 48.0249V41.6269C46.3211 41.2214 46.5071 41.0201 46.8819 41.0201H46.8935C47.2713 41.023 47.4601 41.2272 47.4601 41.6269V48.0249ZM37.8077 50.1401H42.3434V48.4392H39.7341V39.468H37.8077V50.1401Z" fill="#B48607"></path><path d="M120.397 41.8078C119.949 40.5008 118.531 39.8064 117.229 40.2557C115.928 40.705 115.236 42.1287 115.684 43.4357C116.131 44.7428 117.549 45.4371 118.851 44.9878C120.153 44.5385 120.844 43.1148 120.397 41.8078ZM117.511 34.8175C116.907 33.5747 115.416 33.0583 114.179 33.6651C112.941 34.272 112.429 35.7686 113.031 37.0115C113.635 38.2543 115.126 38.7678 116.364 38.1639C117.601 37.557 118.116 36.0604 117.511 34.8175ZM113.798 28.2299C98.7121 4.88714 69.2812 -6.06214 41.9337 3.39339C21.301 10.5266 6.86013 27.5443 2.04264 47.3568H7.18556C11.8897 29.6507 24.9998 14.5411 43.555 8.12554C68.6274 -0.54228 95.6002 9.44132 109.492 30.7418C109.53 30.8147 109.57 30.8877 109.617 30.9577C110.366 32.1159 111.909 32.4456 113.066 31.6929C114.219 30.9402 114.548 29.391 113.798 28.2328V28.2299ZM9.76573 84.1958H4.39327C16.2365 115.258 50.5691 131.517 82.1298 120.606C100.086 114.398 113.356 100.703 119.67 84.1958H114.295C108.237 98.5644 96.3585 110.395 80.5056 115.874C52.1062 125.694 21.2661 111.579 9.76283 84.1958H9.76573Z" fill="#303E47"></path><path d="M76.0048 115.162V109.998L74.8454 110.205V112.749L74.0202 110.357L72.7999 110.576V115.742L73.997 115.527V113.053L74.7815 115.384L76.0048 115.162Z" fill="#B48607"></path><path d="M58.1266 116.915L59.3644 116.95V111.786L58.1266 111.748V116.915Z" fill="#B48607"></path><path d="M52.0917 111.089L49.1483 110.456L49.1425 115.562L52.0888 116.192V115.378L50.3948 115.016V113.686L51.8534 113.998V113.181L50.3977 112.869V111.538L52.0917 111.9V111.089Z" fill="#B48607"></path><path d="M56.636 115.597V112.662C56.636 111.918 56.1392 111.492 55.1425 111.384L53.4311 111.2V116.367L55.0786 116.545C56.1159 116.656 56.6331 116.338 56.6331 115.597H56.636ZM55.4011 115.462C55.4011 115.658 55.2791 115.74 55.0379 115.716L54.6689 115.675V112.157L55.0379 112.198C55.282 112.224 55.4011 112.335 55.4011 112.53V115.462Z" fill="#B48607"></path><path d="M60.852 112.883V115.979C60.852 116.723 61.3867 117.096 62.453 117.096C63.5223 117.096 64.0569 116.723 64.0569 115.979V115.246H62.8221V115.979C62.8221 116.174 62.7 116.271 62.4559 116.271C62.2119 116.271 62.0927 116.174 62.0927 115.979V112.883C62.0927 112.688 62.2119 112.592 62.453 112.592H62.4618C62.7029 112.592 62.825 112.691 62.825 112.883V113.616H64.0598V112.883C64.0598 112.139 63.5252 111.769 62.4559 111.769C61.3867 111.769 60.855 112.139 60.855 112.883H60.852Z" fill="#B48607"></path><path d="M66.7475 111.614L65.5097 111.687V116.851L66.7475 116.778V111.614Z" fill="#B48607"></path><path d="M71.4778 115.305V112.209C71.4778 111.465 70.9432 111.136 69.8739 111.215C68.8076 111.293 68.273 111.705 68.273 112.449V115.544C68.273 116.288 68.8076 116.621 69.8739 116.542C70.9432 116.46 71.4778 116.049 71.4778 115.305ZM70.2401 115.398C70.2401 115.594 70.118 115.699 69.8739 115.716C69.6299 115.734 69.5107 115.646 69.5107 115.451V112.355C69.5107 112.16 69.6299 112.055 69.871 112.037H69.8769C70.118 112.02 70.2401 112.107 70.2401 112.3V115.398ZM70.118 111.007L71.196 110.441V110.17L70.2371 110.24L69.0575 111.083L70.118 111.004V111.007Z" fill="#B48607"></path><path d="M40.4663 83.2564L39.0164 87.3758L34.6668 87.4867L38.1215 90.1445L36.8808 94.334L40.4663 91.8571L44.0519 94.334L42.8141 90.1445L46.2659 87.4867L41.9162 87.3758L40.4663 83.2564Z" fill="#B48607"></path><path d="M83.1671 83.2564L81.7172 87.3758L77.3675 87.4867L80.8223 90.1445L79.5816 94.334L83.1671 91.8571L86.7526 94.334L85.5119 90.1445L88.9667 87.4867L84.617 87.3758L83.1671 83.2564Z" fill="#B48607"></path><path d="M73.8256 107.976V90.4159C73.8256 85.9988 71.6493 83.7903 67.2967 83.7903C62.9441 83.7903 60.7823 85.9988 60.7823 90.4159V109.158C61.1891 109.169 61.593 109.184 62.0056 109.184C63.3567 109.184 64.6235 109.14 65.8177 109.067C65.8177 108.921 65.8148 108.808 65.8148 108.776V90.4129C65.8148 89.2605 66.303 88.6829 67.2822 88.6829H67.3112C68.2991 88.6829 68.7931 89.2605 68.7931 90.4129V108.776C68.7931 108.776 68.7902 108.799 68.7873 108.813C70.7137 108.595 72.3902 108.3 73.8256 107.976ZM72.9423 96.1487H71.8498L71.687 94.8183H71.0188L70.8502 96.1487H69.7635L70.0599 93.8001L70.6788 89.6631H72.0328L72.6459 93.7943L72.9423 96.1487ZM73.0207 97.8817H69.6589V97.0152H73.0207V97.8817ZM71.1553 93.6922H71.5476L71.3529 92.1401L71.1582 93.6922H71.1553ZM52.9779 108.312C54.5382 108.6 56.2292 108.846 58.0104 109V84.2804H48.9739V89.1613H52.9779V108.312Z" fill="#B48607"></path></svg> 